<svg id="Layer_1" data-name="Layer 1" xmlns="http://www.w3.org/2000/svg" viewBox="0 0 5500 1018.02"><defs><style>.cls-1{fill:#fff;}.cls-2{fill:#30303c;}.cls-3{fill:#5f92c3;}</style></defs><title>dark_logo</title><path class="cls-1" d="M4839.23,244a105.61,105.61,0,0,0-69.53,26V244H4082.62V413.94L3963,244H3720.43V397.86a294.92,294.92,0,0,0-56.55-75c-59-56.59-140.61-87.76-229.7-87.76s-170.8,31.14-230,87.69a295.55,295.55,0,0,0-58.3,77.84V244H2541.41a105.61,105.61,0,0,0-69.46,26V244H2242.19v184.7L2106.31,244H1086.55a105.61,105.61,0,0,0-69.46,26V244H787.33v184.7L651.45,244H250V740.48A114.62,114.62,0,0,0,364.49,855H671.38V656.45L816.42,855h200.67V456H1124.8V740.48A114.62,114.62,0,0,0,1239.3,855h114.49V456h106.44V733.37A121.74,121.74,0,0,0,1581.83,855h352V824.31a114.06,114.06,0,0,0,77.9,30.67h114.49V656.45l145,198.53h200.67V456h107.71V740.48A114.62,114.62,0,0,0,2694.15,855h114.49V456h108.23V740.48A114.62,114.62,0,0,0,3031.37,855h114.49V698.32a295.55,295.55,0,0,0,58.3,77.84c59.22,56.55,140.91,87.69,230,87.69s170.67-31.17,229.7-87.76a294.93,294.93,0,0,0,56.55-75V753l.19,2.14A109.69,109.69,0,0,0,3829.86,855h139.35V685.07l119.2,169.41,243,.49V819a121.23,121.23,0,0,0,86.3,36h352V456h107.78V740.48A114.62,114.62,0,0,0,4992,855h114.49V456H5250V244Zm-1339,378.88c-16.25,17.93-39.08,27.41-66,27.41-27.31,0-50.39-9.5-66.75-27.48s-25.57-44.16-25.57-73.32c0-29.42,9.06-55.54,25.51-73.55,16.29-17.83,39.39-27.25,66.81-27.25,27,0,49.89,9.4,66.07,27.18,16.43,18.06,25.48,44.21,25.48,73.62C3525.72,578.66,3516.66,604.72,3500.19,622.89Z"/><path class="cls-2" d="M3158.69,549.49c0-156.65,118.07-266.23,275.49-266.23S3708.9,392.84,3708.9,549.49,3591.6,815.72,3434.18,815.72,3158.69,706.14,3158.69,549.49Zm415.16,0c0-84.11-54.79-148.93-139.67-148.93-85.66,0-140.45,64.82-140.45,148.93,0,83.34,54.79,148.93,140.45,148.93C3519.07,698.43,3573.85,632.83,3573.85,549.49Z"/><path class="cls-2" d="M1885.71,407.89V292.14H1508.36V733.37a73.47,73.47,0,0,0,73.47,73.47h303.88V691.1H1641.09V603.9h239.22V488.14H1641.09V407.89Z"/><path class="cls-2" d="M2541.41,292.14a57.93,57.93,0,0,0-57.93,57.93v57.82h144.31V740.48a66.36,66.36,0,0,0,66.36,66.36h66.36v-399H2904V292.14Z"/><path class="cls-2" d="M298.13,292.14V740.48a66.36,66.36,0,0,0,66.36,66.36h66.36V292.14Z"/><path class="cls-2" d="M835.46,292.14V575.34L627.11,292.14H490.52V740.48a66.36,66.36,0,0,0,66.36,66.36h66.36V509L840.86,806.85H969V292.14Z"/><path class="cls-2" d="M2290.32,292.14V575.34L2082,292.14H1945.38V740.48a66.36,66.36,0,0,0,66.36,66.36h66.36V509l217.61,297.87h128.1V292.14Z"/><path class="cls-2" d="M1086.55,292.14a57.93,57.93,0,0,0-57.93,57.93v57.82h144.31V740.48a66.36,66.36,0,0,0,66.36,66.36h66.36v-399h143.53V292.14Z"/><path class="cls-2" d="M2965,292.14V740.48a66.36,66.36,0,0,0,66.36,66.36h66.36V292.14Z"/><path class="cls-3" d="M4721.57,407.89V292.14H4344.22V733.37a73.47,73.47,0,0,0,73.47,73.47h303.88V691.1H4476.95V603.9h239.22V488.14H4476.95V407.89Z"/><path class="cls-3" d="M4839.23,292.14a57.93,57.93,0,0,0-57.93,57.93v57.82h144.31V740.48A66.36,66.36,0,0,0,4992,806.85h66.36v-399h143.53V292.14Z"/><polygon class="cls-2" points="4207 292.14 4130.75 292.14 4130.75 565.97 4207.01 674.33 4207 292.14"/><path id="Left" class="cls-2" d="M4207,806.84l-362.19-514.7h-76.26v458.7a61.56,61.56,0,0,0,61.3,56h76.53a61.55,61.55,0,0,1-61.53-61.55l0-320.65L3921.07,533h0l192.39,273.43Z"/><path class="cls-3" d="M3921.07,533l-76.26-108.38,0,320.65a61.55,61.55,0,0,0,61.53,61.55h14.69V533Z"/><polygon class="cls-3" points="4207.01 292.14 4207.01 674.33 3938.06 292.14 3844.82 292.14 4207.01 806.84 4283.26 806.84 4283.26 292.24 4207.01 292.14"/></svg>